<?xml version="1.0" encoding="UTF-8" standalone="no"?>
<!-- Created with Inkscape (http://www.inkscape.org/) -->

<svg
   width="10mm"
   height="10mm"
   viewBox="0 0 10 10"
   version="1.1"
   id="svg1"
   inkscape:version="1.3.2 (091e20e, 2023-11-25, custom)"
   sodipodi:docname="clear_light.svg"
   xmlns:inkscape="http://www.inkscape.org/namespaces/inkscape"
   xmlns:sodipodi="http://sodipodi.sourceforge.net/DTD/sodipodi-0.dtd"
   xmlns="http://www.w3.org/2000/svg"
   xmlns:svg="http://www.w3.org/2000/svg">
  <sodipodi:namedview
     id="namedview1"
     pagecolor="#ffffff"
     bordercolor="#111111"
     borderopacity="1"
     inkscape:showpageshadow="0"
     inkscape:pageopacity="0"
     inkscape:pagecheckerboard="1"
     inkscape:deskcolor="#d1d1d1"
     inkscape:document-units="mm"
     inkscape:zoom="30.59939"
     inkscape:cx="20.474265"
     inkscape:cy="22.402408"
     inkscape:window-width="1680"
     inkscape:window-height="997"
     inkscape:window-x="-8"
     inkscape:window-y="-8"
     inkscape:window-maximized="1"
     inkscape:current-layer="layer1"
     showgrid="false" />
  <defs
     id="defs1">
    <inkscape:path-effect
       effect="fillet_chamfer"
       id="path-effect5"
       is_visible="true"
       lpeversion="1"
       nodesatellites_param="F,0,0,1,0,0,0,1 @ F,0,0,1,0,0,0,1 @ F,0,0,1,0,0,0,1 @ F,0,0,1,0,0,0,1 @ F,0,0,1,0,0,0,1 @ F,0,0,1,0,0,0,1 @ F,0,0,1,0,0,0,1 @ F,0,0,1,0,0,0,1 @ F,0,0,1,0,0,0,1 @ F,0,0,1,0,0,0,1 @ F,0,0,1,0,0,0,1"
       radius="0"
       unit="px"
       method="auto"
       mode="F"
       chamfer_steps="1"
       flexible="false"
       use_knot_distance="true"
       apply_no_radius="true"
       apply_with_radius="true"
       only_selected="false"
       hide_knots="false" />
    <inkscape:path-effect
       effect="fillet_chamfer"
       id="path-effect3"
       is_visible="true"
       lpeversion="1"
       nodesatellites_param="F,0,0,1,0,1,0,1 @ F,0,0,1,0,1,0,1 @ F,0,0,1,0,1,0,1 @ F,0,0,1,0,1,0,1"
       radius="0"
       unit="px"
       method="auto"
       mode="F"
       chamfer_steps="1"
       flexible="false"
       use_knot_distance="true"
       apply_no_radius="true"
       apply_with_radius="true"
       only_selected="false"
       hide_knots="false" />
  </defs>
  <g
     inkscape:label="Слой 1"
     inkscape:groupmode="layer"
     id="layer1">
    <path
       id="rect3"
       style="fill:#ffffff;fill-opacity:1;fill-rule:evenodd;stroke-width:0.264583"
       d="M 1.9998779 3.5289836 C 1.4721016 3.5291106 1.0667896 3.9966468 1.1415324 4.519104 L 1.8588013 9.0103027 C 1.9400822 9.5780406 2.4262904 9.9997292 2.9998169 9.9999064 L 7.0000895 9.9999064 C 7.5738123 9.9999863 8.0603132 9.5782349 8.1416219 9.0103027 L 8.858374 4.519104 C 8.9331168 3.9966468 8.527805 3.5291106 8.0000285 3.5289836 L 1.9998779 3.5289836 z M 3.7072673 4.9712728 C 3.8354145 4.9712755 3.9633092 5.0196869 4.060734 5.1170003 L 5.0002116 6.0569946 L 5.9396891 5.1170003 C 6.1345261 4.9221217 6.4518011 4.922137 6.6466227 5.1170003 C 6.8418343 5.3122536 6.8418343 5.6291974 6.6466227 5.8244507 L 5.7071452 6.764445 L 6.6466227 7.7049561 C 6.8417692 7.9001982 6.8417692 8.2166475 6.6466227 8.4118896 C 6.4513806 8.6070362 6.1349312 8.6070362 5.9396891 8.4118896 L 5.0002116 7.4718953 L 4.060734 8.4118896 C 3.8654807 8.6071013 3.548537 8.6071013 3.3532837 8.4118896 C 3.1580721 8.2166363 3.1580721 7.9002094 3.3532837 7.7049561 L 4.293278 6.764445 L 3.3532837 5.8244507 C 3.1577926 5.6291495 3.1577926 5.3123015 3.3532837 5.1170003 C 3.4507194 5.0196759 3.57912 4.97127 3.7072673 4.9712728 z " />
    <path
       id="rect4"
       style="fill:#ffffff;fill-rule:evenodd;stroke-width:0.264583;fill-opacity:1"
       d="M 5.0002116 0 C 4.557012 -1.5666465e-16 4.1997437 0.35675161 4.1997437 0.79995117 L 4.1997437 0.93224284 L 1.7998901 0.93224284 C 1.3566906 0.93224284 0.99993896 1.2889944 0.99993896 1.732194 C 0.99993896 2.1753936 1.3566906 2.5321452 1.7998901 2.5321452 L 8.2000163 2.5321452 C 8.6432158 2.5321452 8.9999674 2.1753936 8.9999674 1.732194 C 8.9999674 1.2889944 8.6432158 0.93224284 8.2000163 0.93224284 L 5.8001628 0.93224284 L 5.8001628 0.79995117 C 5.8001628 0.35675161 5.4434112 0 5.0002116 0 z " />
  </g>
</svg>
