<?xml version="1.0" encoding="UTF-8" standalone="no"?>
<!-- Created with Inkscape (http://www.inkscape.org/) -->

<svg
   width="10mm"
   height="10mm"
   viewBox="0 0 10 10"
   version="1.1"
   id="svg1"
   inkscape:version="1.3.2 (091e20e, 2023-11-25, custom)"
   sodipodi:docname="save_light.svg"
   xmlns:inkscape="http://www.inkscape.org/namespaces/inkscape"
   xmlns:sodipodi="http://sodipodi.sourceforge.net/DTD/sodipodi-0.dtd"
   xmlns="http://www.w3.org/2000/svg"
   xmlns:svg="http://www.w3.org/2000/svg">
  <sodipodi:namedview
     id="namedview1"
     pagecolor="#ffffff"
     bordercolor="#111111"
     borderopacity="1"
     inkscape:showpageshadow="0"
     inkscape:pageopacity="0"
     inkscape:pagecheckerboard="1"
     inkscape:deskcolor="#d1d1d1"
     inkscape:document-units="mm"
     inkscape:zoom="10.818518"
     inkscape:cx="31.935982"
     inkscape:cy="26.759673"
     inkscape:window-width="1680"
     inkscape:window-height="997"
     inkscape:window-x="-8"
     inkscape:window-y="-8"
     inkscape:window-maximized="1"
     inkscape:current-layer="layer1"
     showgrid="false" />
  <defs
     id="defs1">
    <inkscape:path-effect
       effect="fillet_chamfer"
       id="path-effect1"
       is_visible="true"
       lpeversion="1"
       nodesatellites_param="F,0,0,1,0,0,0,1 @ F,0,0,1,0,1,0,1 @ F,0,0,1,0,1,0,1 @ F,0,0,1,0,0,0,1 @ F,0,0,1,0,0,0,1 @ F,0,0,1,0,0,0,1 @ F,0,0,1,0,0,0,1 @ F,0,0,1,0,0,0,1"
       radius="0"
       unit="px"
       method="auto"
       mode="F"
       chamfer_steps="1"
       flexible="false"
       use_knot_distance="true"
       apply_no_radius="true"
       apply_with_radius="true"
       only_selected="false"
       hide_knots="false" />
  </defs>
  <g
     inkscape:label="Слой 1"
     inkscape:groupmode="layer"
     id="layer1">
    <path
       id="rect1"
       style="fill:#fefeff;fill-opacity:1;fill-rule:evenodd;stroke-width:0.264583"
       d="M 0.99993896 0 C 0.44594008 0 0 0.44594008 0 0.99993896 L 0 8.9999674 C 0 9.5539664 0.44594008 9.9999064 0.99993896 9.9999064 L 8.9999674 9.9999064 C 9.5539664 9.9999064 9.9999064 9.5539664 9.9999064 8.9999674 L 9.9999064 3.9997559 C 9.9998902 3.3595733 9.7456044 2.7456066 9.2929728 2.2928833 L 7.7070231 0.70693359 C 7.2542998 0.2543021 6.6403331 1.6199053e-05 6.0001506 0 L 0.99993896 0 z M 1.749764 0.74982503 L 5.7500366 0.74982503 L 5.7500366 1.749764 C 5.7500366 2.0267637 5.5268085 2.2499919 5.2498088 2.2499919 L 2.2499919 2.2499919 C 1.9729921 2.2499919 1.749764 2.0267637 1.749764 1.749764 L 1.749764 0.74982503 z M 2.2499919 5.7500366 L 7.7499146 5.7500366 C 8.0269141 5.7500366 8.2496257 5.9727483 8.2496257 6.2497477 L 8.2496257 9.2500814 L 1.749764 9.2500814 L 1.749764 6.2497477 C 1.749764 5.9727483 1.9729924 5.7500366 2.2499919 5.7500366 z " />
  </g>
</svg>
